<svg width="200" height="80" viewBox="0 0 200 80" fill="none" xmlns="http://www.w3.org/2000/svg">
<g clip-path="url(#clip0_231_5)">
<rect width="200" height="80" fill="white"/>
<mask id="mask0_231_5" style="mask-type:luminance" maskUnits="userSpaceOnUse" x="13" y="0" width="179" height="74">
<path d="M191.779 0.875488H13.0811V73.7163H191.779V0.875488Z" fill="white"/>
</mask>
<g mask="url(#mask0_231_5)">
<mask id="mask1_231_5" style="mask-type:luminance" maskUnits="userSpaceOnUse" x="13" y="2" width="177" height="73">
<path d="M189.988 2.15381H13.0811V74.5257H189.988V2.15381Z" fill="white"/>
</mask>
<g mask="url(#mask1_231_5)">
<mask id="mask2_231_5" style="mask-type:luminance" maskUnits="userSpaceOnUse" x="13" y="2" width="177" height="73">
<path d="M189.988 2.15381H13.0811V74.5257H189.988V2.15381Z" fill="white"/>
</mask>
<g mask="url(#mask2_231_5)">
<mask id="mask3_231_5" style="mask-type:luminance" maskUnits="userSpaceOnUse" x="13" y="2" width="177" height="73">
<path d="M189.988 2.15381H13.0811V74.5257H189.988V2.15381Z" fill="white"/>
</mask>
<g mask="url(#mask3_231_5)">
<path d="M65.641 45.8412L65.7689 48.1428C65.7689 48.4837 65.5557 48.7821 65.2147 48.8673C64.2343 49.0378 62.9128 49.2509 62.0602 49.2509C57.84 49.2509 56.5612 47.6313 56.5612 42.3888V34.3333H54.9413C54.5577 34.3333 54.2593 34.0349 54.2593 33.6513V31.2645C54.2593 30.8809 54.5577 30.5826 54.9413 30.5826H56.5612V27.7695C56.5612 27.4285 56.7743 27.1728 57.0727 27.0876L59.8436 26.4056C60.0567 26.363 60.2698 26.4056 60.4403 26.5335C60.6109 26.6613 60.6961 26.8745 60.6961 27.0876V30.5826H64.9589C65.3426 30.5826 65.641 30.8809 65.641 31.2645V33.6513C65.641 34.0349 65.3426 34.3333 64.9589 34.3333H60.6961V41.7921C60.6961 44.392 60.7814 45.2871 62.6144 45.2871C64.4474 45.2871 64.3195 45.2445 64.8737 45.2019C65.2573 45.2019 65.5984 45.4576 65.5984 45.8412M52.5115 39.6184C52.5115 46.2674 49.9964 49.2509 44.3269 49.2509C38.6573 49.2509 36.0996 46.2674 36.0996 39.6184C36.0996 32.9694 38.6573 30.1563 44.3269 30.1563C49.9964 30.1563 52.5115 33.1825 52.5115 39.6184ZM48.2487 39.6184C48.2487 35.5267 47.1403 33.9497 44.2843 33.9497C41.4282 33.9497 40.2772 35.4414 40.2772 39.6184C40.2772 43.7953 40.9166 45.4576 44.2843 45.4576C47.6519 45.4576 48.2487 43.3265 48.2487 39.6184ZM114.749 30.8383C114.621 30.6678 114.408 30.5826 114.195 30.5826H111.509C111.211 30.5826 110.912 30.7957 110.827 31.094L107.204 44.7756H106.905L103.282 31.094C103.196 30.7957 102.941 30.5826 102.6 30.5826H99.9141C99.7009 30.5826 99.4878 30.6678 99.3599 30.8383C99.232 31.0088 99.1894 31.2219 99.232 31.435L103.239 46.7789C103.452 47.5461 104.134 48.8247 105.541 48.8247H106.308C106.223 49.0804 106.18 49.3362 106.095 49.5919V49.7198C105.839 50.4443 105.498 51.5099 103.537 51.5099L100.085 51.2968C99.8715 51.2968 99.7009 51.3394 99.5731 51.5099C99.4452 51.6378 99.3599 51.8509 99.3599 52.0214L99.4452 53.8115C99.4452 54.1098 99.6583 54.3656 99.9567 54.4508C100.98 54.7065 102.898 55.0049 104.518 55.0475C104.603 55.0475 104.646 55.0475 104.731 55.0475C107.331 55.0475 109.122 53.3426 110.017 50.0608C111.04 46.1822 112.362 41.1528 113.299 37.5299C113.726 35.8677 114.109 34.4611 114.365 33.4808L114.877 31.4776C114.919 31.2645 114.877 31.0514 114.749 30.8809M33.5419 47.8444C33.6272 48.0575 33.6272 48.3133 33.4993 48.4837C33.3714 48.6969 33.1583 48.7821 32.9025 48.7821H29.6628C29.407 48.7821 29.1512 48.6116 29.0233 48.3559L24.8884 39.0217C22.8423 39.0217 21.0519 38.8938 20.0714 38.8086V48.0575C20.0714 48.4411 19.773 48.7395 19.3894 48.7395H16.4906C16.107 48.7395 15.8086 48.4411 15.8086 48.0575V24.6581C15.8086 24.3171 16.0644 24.0188 16.4054 23.9762C20.114 23.5499 23.098 23.5073 24.2064 23.5073C25.3147 23.5073 24.8031 23.5073 24.8031 23.5073C31.9221 23.5073 33.4141 27.7269 33.4141 31.2219C33.4141 34.7169 32.0073 36.2939 29.1086 37.743L33.5419 47.7592V47.8444ZM24.7605 27.599H23.2259C21.5208 27.599 20.5403 27.7269 20.0714 27.8121V35.0152C20.8814 35.0579 22.4586 35.1431 24.5474 35.1431C27.2756 35.1431 28.9381 33.6513 28.9381 31.3924C28.9381 29.1334 27.8298 27.599 24.7179 27.599M82.6497 36.2939V48.3985C82.6497 48.6116 82.5644 48.7821 82.3939 48.91C82.2234 49.0378 82.0529 49.1231 81.8397 49.0804C80.433 48.8673 79.7509 48.4411 79.0689 47.9297C79.0689 47.9297 75.9144 49.2083 73.1009 49.2083C70.2875 49.2083 67.815 47.0772 67.815 43.3691C67.815 39.661 69.6054 38.1266 73.9109 37.8283L78.4295 37.4447V36.3365C78.4295 34.93 77.6195 34.1628 76.1702 34.1628C74.7208 34.1628 71.3532 34.3759 69.8186 34.5464C69.648 34.5464 69.4349 34.5464 69.307 34.3759C69.1791 34.248 69.0939 34.0775 69.0939 33.8644L69.0086 31.5629C69.0086 31.2219 69.2644 30.9235 69.6054 30.8383C70.9695 30.6252 74.3372 30.1137 76.4259 30.1137C80.6888 30.1137 82.6497 32.0743 82.6497 36.2939ZM74.465 40.897C72.8452 41.0675 72.0352 41.7921 72.0352 43.2413C72.0352 44.6904 72.291 45.6281 73.9109 45.6281C75.5307 45.6281 78.4721 44.9035 78.4721 44.9035V40.6839L74.465 40.897ZM96.2054 30.4121C94.3724 30.5399 92.5394 31.5629 91.4311 32.3727V31.2219C91.4311 30.8383 91.1327 30.5399 90.749 30.5399H87.9782C87.5945 30.5399 87.2961 30.8383 87.2961 31.2219V48.1001C87.2961 48.4837 87.5945 48.7821 87.9782 48.7821H90.749C91.1327 48.7821 91.4311 48.4837 91.4311 48.1001V36.4644C92.0705 35.9529 93.9888 34.4611 96.3333 34.2907C96.6743 34.2907 96.9727 33.9497 96.9727 33.6087V31.1366C96.9727 30.9235 96.8875 30.753 96.7596 30.6252C96.6317 30.4973 96.4186 30.4121 96.2481 30.4547" fill="#17418B"/>
<path d="M140.922 54.7489L138.791 57.3062L138.109 56.7095L140.326 54.2374C139.985 53.8965 139.686 53.5981 139.345 53.2998L139.857 52.7883C140.709 53.5981 141.434 54.1948 142.372 54.962L141.945 55.5161C141.604 55.2604 141.263 55.0046 140.922 54.7063M136.66 48.4409L133.164 50.4867C133.292 50.7425 133.42 50.9982 133.59 51.2539L137.086 49.2081C136.915 48.9097 136.83 48.7392 136.66 48.4409ZM138.876 51.6801L137.001 53.2998L137.981 50.5293C137.811 50.2736 137.725 50.1031 137.555 49.89L134.187 52.1916C134.358 52.4047 134.528 52.6178 134.699 52.8735L136.745 51.467L135.807 54.2801C135.977 54.4506 136.148 54.7489 136.361 54.9194L139.473 52.2342C139.302 52.0637 139.089 51.8932 138.919 51.6801M143.48 56.6669C144.034 56.9652 144.546 57.2636 145.185 57.5619L145.526 56.9652C144.674 56.539 143.906 56.0276 143.224 55.5587L140.922 58.9259C141.775 59.5226 142.585 59.9914 143.48 60.5029L143.864 59.9061L142.031 58.798L142.67 57.9029L143.906 58.6275L144.247 58.0734C143.864 57.8603 143.437 57.6046 143.011 57.3488L143.523 56.6243L143.48 56.6669ZM154.819 44.1361C151.665 44.1361 149.064 41.5361 149.064 38.3821C149.064 35.2281 151.665 32.6282 154.819 32.6282C157.974 32.6282 160.574 35.2281 160.574 38.3821C160.574 41.5361 158.016 44.1361 154.819 44.1361ZM154.862 42.2181C156.951 42.2181 158.698 40.4706 158.698 38.3821C158.698 36.2936 157.462 35.1002 155.8 34.674C155.8 34.5035 155.714 33.6937 155.714 33.6937H153.796C153.796 33.6937 153.753 34.5461 153.753 34.7166C152.134 35.1855 151.068 36.6772 151.068 38.3395C151.068 40.0017 152.816 42.1755 154.862 42.1755M146.421 16.6023V16.4318C146.421 15.4089 147.189 14.5139 148.254 14.4286C149.363 14.3007 150.343 15.1532 150.428 16.2614V16.4318C150.428 17.4548 149.661 18.3498 148.553 18.4777C147.487 18.5629 146.464 17.7531 146.379 16.645M147.146 16.5171C147.189 17.2417 147.828 17.7531 148.51 17.7105C149.192 17.6253 149.704 17.1138 149.704 16.4318C149.704 16.4318 149.704 16.3466 149.704 16.304C149.661 15.5794 149.022 15.0679 148.297 15.1532C147.615 15.1958 147.103 15.7499 147.146 16.4318V16.5597V16.5171ZM155.544 17.54C155.203 17.54 155.032 17.54 154.734 17.54L155.757 15.4515L156.652 13.5762L157.547 13.6614L158.016 15.4515L158.656 17.881C158.357 17.8384 158.102 17.7957 157.846 17.7531L157.633 16.9859C157.036 16.9007 156.482 16.8581 155.928 16.8581L155.544 17.54ZM156.226 16.1335C156.652 16.1335 157.078 16.2187 157.505 16.2614L157.292 15.4089L157.036 14.5565L156.61 15.4089L156.226 16.1335ZM152.176 14.3434L152.517 17.6253L153.37 17.54L153.029 14.2581L154.35 14.1729V13.4483C152.858 13.5336 152.219 13.5762 150.769 13.7893L150.855 14.4712L152.134 14.3007L152.176 14.3434ZM152.347 59.0111L152.048 61.4832L150.855 58.798C150.556 58.7554 150.386 58.6701 150.13 58.6275L149.192 62.5913C149.491 62.6766 149.746 62.7192 150.045 62.7618L150.556 60.3324L151.75 63.0602C152.006 63.0602 152.347 63.188 152.645 63.188L153.071 59.0963C152.858 59.0963 152.56 59.0963 152.304 59.0963M175.707 50.4441L172.766 48.8245L172.382 49.5064L175.92 51.467L177.284 48.995L176.687 48.654L175.707 50.4015V50.4441ZM171.274 51.0408L175.281 52.3621C175.195 52.4899 175.11 52.5752 175.025 52.7031C174.94 52.7883 174.854 52.8735 174.812 53.0014L174.087 52.7457L172.979 54.1096L173.362 54.7489C173.192 54.9194 173.021 55.1325 172.808 55.3456L171.231 52.7031L170.634 51.7228L171.231 51.0408H171.274ZM171.7 51.9785L172.169 52.7457L172.595 53.5129L173.192 52.7457L173.362 52.5752L171.7 52.0211V51.9785ZM167.48 57.3488C167.65 57.6472 167.736 57.9882 167.736 58.3718C167.736 58.6701 167.693 58.9258 167.565 59.1816C167.394 59.5652 167.096 59.9061 166.712 60.1193C165.775 60.6733 164.538 60.3324 163.984 59.3521C163.984 59.3094 163.942 59.2242 163.899 59.1816C163.771 58.9258 163.728 58.6275 163.686 58.3718C163.686 57.6472 164.069 57.0079 164.709 56.6243C165.689 56.0702 166.926 56.4112 167.48 57.3488ZM167.011 58.3718C167.011 58.116 166.968 57.9029 166.84 57.6898C166.499 57.0505 165.689 56.88 165.093 57.221C164.666 57.4767 164.411 57.9029 164.411 58.3718C164.411 58.5849 164.496 58.798 164.581 59.0111C164.581 59.0537 164.666 59.139 164.709 59.2242C165.093 59.693 165.775 59.7783 166.329 59.4799C166.457 59.3947 166.585 59.3094 166.67 59.2242C166.883 58.9685 166.968 58.6701 166.968 58.3718M168.972 53.5555L170.634 55.3456L167.821 54.5358C167.565 54.7063 167.437 54.7915 167.224 54.962L169.654 58.2439C169.867 58.0734 170.08 57.9029 170.293 57.7324L168.801 55.7718L171.657 56.6243C171.87 56.4538 172.126 56.2833 172.339 56.0276L169.526 53.044C169.355 53.2145 169.185 53.4276 169.014 53.5981M187.003 38.3821C187.003 38.7657 187.003 39.1493 186.961 39.4477V39.5329L186.876 39.5755C185.511 40.3853 183.721 40.8542 181.973 40.8968C181.931 41.1099 181.718 42.7295 181.718 42.9426C183.38 43.4115 184.957 44.3065 186.108 45.4573V45.5426C186.151 45.5426 186.151 45.6278 186.151 45.6278C186.066 46.2671 185.853 47.1196 185.597 47.6311V47.7163H185.469C183.934 48.1425 182.101 48.1425 180.396 47.7163C180.311 47.9294 179.671 49.4212 179.629 49.6343C181.121 50.572 182.4 51.8506 183.167 53.2145V53.2998V53.385C182.954 53.9391 182.485 54.7063 182.101 55.1751V55.2604H181.973C180.396 55.2604 178.606 54.7915 177.071 53.9391C176.943 54.1096 175.92 55.4735 175.75 55.6866C176.943 56.9226 177.881 58.5423 178.265 60.0766V60.1619V60.2045C177.924 60.6733 177.284 61.3127 176.773 61.6963H176.73C176.73 61.7389 176.602 61.6963 176.602 61.6963C175.068 61.2701 173.49 60.375 172.211 59.1816C172.041 59.3094 170.762 60.3324 170.549 60.4602C171.359 61.952 171.87 63.6569 171.87 65.2339V65.447H171.785C171.316 65.8732 170.549 66.3421 169.995 66.5552H169.952H169.867C168.503 65.7453 167.181 64.4667 166.286 62.9749C166.073 63.0602 164.538 63.7421 164.325 63.8274C164.538 64.6372 164.666 65.5322 164.666 66.3847C164.666 67.2371 164.496 68.1322 164.325 68.8994V68.9846L164.24 69.0272C163.728 69.2403 162.833 69.4535 162.236 69.5813H162.151L162.109 69.5387C160.915 68.4305 160.02 66.8109 159.551 65.1486C159.338 65.1486 157.718 65.3617 157.505 65.447C157.505 67.1945 156.993 68.9846 156.183 70.3485V70.4338C156.141 70.4338 156.055 70.4338 156.055 70.4338C155.501 70.519 154.606 70.519 154.009 70.4338H153.924L153.881 70.3485C153.071 68.9846 152.602 67.1945 152.56 65.447C152.304 65.447 150.642 65.1913 150.386 65.1486C149.917 66.8109 149.022 68.3879 147.871 69.5387H147.828C147.828 69.5813 147.743 69.5813 147.743 69.5813C147.103 69.4961 146.294 69.2403 145.739 69.0272H145.654V68.942C145.398 68.1748 145.313 67.2797 145.313 66.4273C145.313 65.5749 145.441 64.7224 145.654 63.9126C145.441 63.8274 143.992 63.2307 143.778 63.1454C142.883 64.6798 141.562 65.9585 140.198 66.7683H140.112H140.027C139.473 66.5125 138.706 66.0863 138.194 65.7027H138.152V65.4896C138.152 63.9126 138.62 62.1651 139.473 60.6733C139.302 60.5455 137.938 59.4799 137.725 59.3521C136.489 60.5455 134.869 61.4832 133.335 61.8668H133.249H133.164C132.695 61.4832 132.098 60.8865 131.715 60.375V60.2897C131.672 60.2897 131.715 60.2045 131.715 60.2045C132.141 58.6701 133.036 57.0505 134.23 55.8145C134.102 55.644 133.036 54.2801 132.908 54.067C131.374 54.9194 129.583 55.4309 128.006 55.3882H127.878C127.494 54.8341 127.068 54.067 126.812 53.5129V53.4276V53.3424C127.622 51.9359 128.901 50.6572 130.393 49.7621C130.308 49.549 129.669 48.0147 129.541 47.8442C127.835 48.2704 126.002 48.2704 124.468 47.8442H124.383L124.34 47.7589C124.127 47.2475 123.914 46.3524 123.828 45.7557V45.6704V45.5852C124.937 44.4344 126.514 43.5394 128.219 43.0279C128.219 42.7722 127.963 41.0673 127.921 40.8542C126.173 40.8542 124.383 40.3853 123.019 39.5755H122.933C122.933 39.5329 122.933 39.4477 122.933 39.4477C122.933 39.1493 122.891 38.8083 122.891 38.4247C122.891 38.0411 122.891 37.7002 122.933 37.4018V37.3166H123.019C124.383 36.5067 126.173 36.0379 127.921 35.9953C127.921 35.7822 128.177 34.1199 128.177 33.8642C126.514 33.3953 124.894 32.4577 123.786 31.3495H123.743C123.743 31.3069 123.743 31.2216 123.743 31.2216C123.828 30.5823 124.042 29.7299 124.297 29.2184V29.1332H124.425C125.96 28.6643 127.793 28.7069 129.498 29.1332C129.583 28.92 130.223 27.4283 130.308 27.2152C128.816 26.3201 127.494 25.0415 126.727 23.6349V23.5497V23.4645C126.983 22.9104 127.409 22.1432 127.75 21.6743V21.5891H127.921C129.541 21.5891 131.288 22.0579 132.823 22.9104C132.951 22.7399 134.017 21.3334 134.144 21.1629C132.951 19.8842 132.013 18.3072 131.629 16.7728V16.6876V16.6023C132.013 16.1335 132.652 15.4942 133.121 15.1106H133.207C133.207 15.0679 133.292 15.1106 133.292 15.1106C134.869 15.4942 136.446 16.4318 137.683 17.6679C137.853 17.54 139.089 16.5597 139.302 16.4318C138.45 14.9401 137.981 13.1926 137.981 11.6582V11.4451H138.066C138.535 11.0189 139.302 10.5926 139.857 10.3369H139.899H139.985C141.349 11.1041 142.67 12.4254 143.565 13.9172C143.778 13.8319 145.398 13.15 145.611 13.0647C145.398 12.2123 145.27 11.3598 145.27 10.5074C145.27 9.61234 145.398 8.7599 145.611 7.99271V7.90747H145.697C146.208 7.69436 147.061 7.43863 147.7 7.35338H147.786L147.871 7.396C149.022 8.50417 149.917 10.1238 150.428 11.7861C150.684 11.7861 152.347 11.5303 152.56 11.4877C152.56 9.74021 153.071 7.99271 153.881 6.58619V6.50094H154.009C154.606 6.4157 155.501 6.4157 156.098 6.50094H156.183L156.226 6.58619C157.078 7.95009 157.547 9.74021 157.547 11.4451C157.803 11.4877 159.466 11.7008 159.679 11.7434C160.19 10.0386 161.086 8.46155 162.236 7.35338H162.279C162.279 7.31076 162.364 7.35338 162.364 7.35338C163.004 7.43863 163.856 7.65174 164.411 7.90747H164.496V8.03533C164.752 8.80253 164.837 9.65496 164.837 10.5074C164.837 11.3598 164.709 12.2549 164.496 13.0647C164.709 13.15 166.329 13.8319 166.542 13.9172C167.437 12.4254 168.716 11.1467 170.123 10.3369H170.208H170.293C170.847 10.55 171.615 11.0189 172.084 11.4025H172.169V11.6582C172.169 13.2352 171.657 14.9827 170.847 16.4318C171.018 16.5597 172.339 17.6253 172.553 17.7531C173.789 16.5597 175.409 15.622 176.943 15.2384H177.028H177.114C177.583 15.5794 178.222 16.2614 178.563 16.7302L178.648 16.8154V16.9007C178.222 18.4777 177.284 20.0547 176.091 21.2907C176.219 21.4612 177.242 22.7825 177.369 22.9956C178.947 22.1432 180.695 21.6743 182.272 21.717H182.357V21.8022C182.783 22.3137 183.252 23.0809 183.465 23.5923V23.6776C183.508 23.6776 183.465 23.7628 183.465 23.7628C182.655 25.1267 181.377 26.4054 179.885 27.343C179.97 27.5562 180.567 29.0479 180.694 29.261C182.357 28.8348 184.233 28.8348 185.725 29.261H185.81V29.3463C186.023 29.8577 186.279 30.7528 186.364 31.3921V31.4774L186.321 31.52C185.213 32.6708 183.593 33.6085 181.931 34.0773C181.931 34.2904 182.186 35.9527 182.229 36.1658C183.977 36.1658 185.767 36.6772 187.131 37.487H187.217C187.217 37.5297 187.217 37.6149 187.217 37.6149C187.217 37.9133 187.259 38.2542 187.259 38.6805M138.663 19.6285L141.306 22.5694C141.69 22.953 142.073 22.9104 142.627 22.4841C145.952 19.8842 150.258 18.3072 154.819 18.3072C159.38 18.3072 163.686 19.8416 167.053 22.4841C167.565 22.8677 167.991 22.953 168.375 22.5694L171.018 19.6285C171.316 19.2875 171.316 18.8613 170.762 18.3924C166.329 14.9401 160.872 12.809 154.862 12.809C148.851 12.809 143.352 14.9401 139.004 18.3924C138.45 18.8613 138.45 19.2875 138.748 19.6285M138.834 31.9888C138.535 31.8183 138.237 31.6052 137.981 31.6905C137.768 31.7331 137.64 31.9888 137.512 32.3298C136.276 36.592 136.276 40.1722 137.512 44.3918C137.597 44.6475 137.683 44.9459 137.938 44.9885C138.152 45.0737 138.45 44.9885 138.834 44.7328L147.018 39.1493C147.317 38.9362 147.487 38.6378 147.487 38.3821C147.487 38.1264 147.317 37.7854 147.018 37.5723L138.834 31.9888ZM140.624 27.1299C140.624 27.4283 141.008 27.5988 141.306 27.7266L150.215 32.0741C150.556 32.2446 150.897 32.2446 151.153 32.0741C151.409 31.9036 151.579 31.6052 151.579 31.2643L152.304 21.376C152.304 20.9071 152.304 20.6088 152.091 20.4809C151.92 20.3104 151.622 20.3531 151.366 20.3957C147.103 21.4186 143.992 23.2087 140.922 26.448C140.667 26.7463 140.539 26.9594 140.624 27.1726M140.752 49.7195C140.752 49.89 140.88 50.1031 141.093 50.3162C144.162 53.5555 147.274 55.3456 151.537 56.3259C151.793 56.4112 152.091 56.4538 152.261 56.3259C152.475 56.198 152.517 55.8997 152.475 55.4309L151.75 45.5426C151.75 45.159 151.579 44.8606 151.324 44.7328C151.068 44.5623 150.727 44.5623 150.386 44.7328L141.477 49.0802C141.178 49.2081 140.837 49.3785 140.794 49.6769C140.794 49.6769 140.794 49.7195 140.794 49.7621M154.819 44.7328C158.357 44.7328 161.213 41.8771 161.213 38.3395C161.213 34.8019 158.357 31.9462 154.819 31.9462C151.281 31.9462 148.425 34.8019 148.425 38.3395C148.425 41.8771 151.281 44.7328 154.819 44.7328ZM157.505 56.198C157.675 56.3259 157.888 56.3685 158.272 56.2407C162.535 55.2177 165.647 53.4276 168.716 50.231C168.886 50.0179 169.1 49.8048 169.057 49.549C169.014 49.3359 168.801 49.1228 168.375 48.9097L159.466 44.5623C159.125 44.3918 158.784 44.3918 158.528 44.5623C158.272 44.7328 158.102 44.9885 158.102 45.4147L157.377 55.303C157.377 55.644 157.334 55.9849 157.547 56.198M170.805 44.6901C171.061 44.8606 171.359 45.0737 171.657 44.9885C171.828 44.9459 171.998 44.7328 172.126 44.3492C173.362 40.1296 173.362 36.5067 172.126 32.3298C172.041 32.0741 171.913 31.7757 171.7 31.6905C171.487 31.6052 171.188 31.6905 170.805 31.9888L162.62 37.5723C162.322 37.7854 162.151 38.0838 162.151 38.3821C162.151 38.6805 162.322 38.9788 162.62 39.1919L170.805 44.7754V44.6901ZM169.014 26.9594C169.014 26.789 168.929 26.5758 168.673 26.3627C165.647 23.1661 162.492 21.3334 158.229 20.3104C157.974 20.2678 157.718 20.1826 157.505 20.3531C157.292 20.5235 157.249 20.8219 157.292 21.2481L158.016 31.1364C158.016 31.52 158.187 31.8183 158.443 31.9462C158.698 32.1167 159.039 32.0741 159.38 31.9462L168.29 27.6414C168.588 27.5135 168.886 27.343 168.972 27.0447C168.972 27.0447 168.972 27.0021 168.972 26.9594M130.905 44.6475L134.699 43.5394C135.04 43.4541 135.338 43.0705 135.338 42.6017C133.974 35.5264 135.722 29.8151 139.857 25.2119C140.283 24.9136 140.326 24.3169 139.899 23.8907L137.128 21.1202C136.873 20.8219 136.361 20.8219 135.935 21.2481C130.649 26.8316 127.963 35.356 129.924 44.0934C130.052 44.5197 130.351 44.818 130.862 44.6901M178.137 46.6934L174.343 45.4147C174.13 45.3295 173.618 45.3295 173.362 46.0114C170.293 53.385 163.132 58.4144 154.819 58.4144C146.507 58.4144 139.217 53.2571 136.276 45.8836C136.063 45.3295 135.509 45.3295 135.338 45.4147L131.544 46.6934C131.118 46.8212 130.905 47.2048 131.118 47.7163C134.827 57.221 144.077 63.9126 154.819 63.9126C165.561 63.9126 174.854 57.1783 178.606 47.6737C178.819 47.1622 178.606 46.8212 178.137 46.6934ZM173.703 21.1629C173.32 20.694 172.723 20.7793 172.553 21.0776L169.782 23.848C169.398 24.2743 169.398 24.871 169.824 25.1693C173.959 29.7725 175.707 35.4838 174.343 42.559C174.343 43.0279 174.599 43.4115 174.982 43.4967L178.776 44.6049C179.288 44.7328 179.629 44.4344 179.714 44.0082C181.675 35.2707 178.989 26.7037 173.703 21.1202M164.837 20.1399L165.732 18.4351L168.077 17.3269C167.821 17.1564 167.565 17.0285 167.309 16.8581L165.689 17.5826L165.391 15.8351C165.05 15.6646 164.837 15.622 164.496 15.4515L164.965 18.0088L164.069 19.6711L164.837 20.0973V20.1399ZM160.446 58.4144C159.252 58.6701 158.357 58.8832 157.206 59.0537L157.334 59.7357C157.761 59.6504 158.144 59.6078 158.613 59.5652L159.21 62.8471L160.062 62.6766L159.338 59.3947C159.764 59.2668 160.19 59.1816 160.659 59.0537L160.446 58.3718V58.4144ZM148.851 58.9685V59.1816C148.809 59.7357 148.425 60.2897 147.828 60.3324L147.956 62.2077C147.7 62.1651 147.359 62.0372 147.061 61.9094V60.1193L146.251 59.7783L145.611 61.3553C145.356 61.2701 145.1 61.1848 144.844 61.0569L145.654 59.139L145.739 58.8832L146.421 57.3062L148.254 57.9882C148.638 58.116 148.851 58.4996 148.894 58.8406M148.084 58.9685C148.084 58.8406 147.999 58.7554 147.871 58.7127L146.848 58.3291L146.635 58.9685L146.549 59.2242L147.487 59.5652C147.743 59.693 147.999 59.4373 148.084 59.2242C148.084 59.139 148.127 59.0537 148.084 58.9685ZM160.403 18.2646C160.062 18.1793 159.849 18.1367 159.466 18.0088L160.105 15.7499L160.574 14.1303C161.256 14.3007 161.938 14.5139 162.577 14.727C162.961 14.8548 163.132 15.281 163.174 15.7073C163.174 16.304 162.876 16.9859 162.279 17.1138L162.535 18.9039C162.236 18.776 162.023 18.6908 161.725 18.5629L161.512 16.9859L160.744 16.7302L160.361 18.1367L160.403 18.2646ZM160.958 16.1335L161.853 16.4318C162.109 16.5171 162.45 16.1335 162.45 15.7925C162.45 15.4515 162.407 15.4942 162.194 15.4515C161.853 15.3237 161.64 15.2811 161.256 15.1532L161.086 15.7925L161 16.1761L160.958 16.1335ZM156.567 60.8865L157.462 63.0175C157.164 63.0175 156.908 63.0175 156.652 63.1028L156.396 62.4208H154.649C154.649 62.4635 154.436 63.188 154.436 63.188C154.137 63.188 153.881 63.188 153.626 63.188L154.393 60.9291L154.947 59.2242C154.947 59.1816 155.842 59.139 155.842 59.139V59.2668C155.885 59.2668 156.61 60.9717 156.61 60.9717L156.567 60.8865ZM156.013 61.6536L155.714 60.8865L155.416 60.034L155.16 60.8865L154.904 61.6963H156.098L156.013 61.6536ZM161.384 58.0734L162.705 61.9094C162.961 61.8241 163.26 61.7389 163.515 61.611L162.194 57.8177C161.853 57.9455 161.682 57.9882 161.341 58.0734M141.945 17.6679L141.732 17.2843C142.329 16.9007 142.969 16.6023 143.565 16.2614C144.29 15.8778 145.313 16.8154 145.228 17.7105C145.228 17.881 145.185 18.0089 145.1 18.1367L146.592 19.2023C146.294 19.3301 146.123 19.458 145.782 19.5859L144.503 18.6482L143.778 19.0318L144.546 20.2678C144.247 20.4383 144.077 20.5662 143.736 20.7793L142.031 17.7105L141.945 17.6679ZM142.798 17.4974L142.926 17.6679L143.352 18.3924L144.205 17.9662C144.29 17.9662 144.333 17.8384 144.333 17.7105C144.333 17.3269 144.077 16.8154 143.651 17.0285C143.352 17.199 143.139 17.3269 142.798 17.4974Z" fill="#F7A400"/>
<path d="M180.226 64.2111H180.482C180.823 64.2111 181.079 64.2111 181.164 64.2111C181.25 64.2111 181.335 64.1258 181.377 64.0832C181.42 63.9979 181.463 63.9127 181.463 63.8701C181.463 63.8275 181.463 63.6996 181.377 63.657C181.335 63.5717 181.25 63.5291 181.164 63.4865C181.079 63.4865 180.866 63.4865 180.482 63.4865H180.226V64.3389V64.2111ZM179.63 65.9586V62.8898H180.269C180.866 62.8898 181.164 62.8898 181.25 62.8898C181.463 62.8898 181.633 62.9324 181.718 63.0176C181.846 63.0603 181.932 63.1881 182.017 63.316C182.102 63.4439 182.145 63.6143 182.145 63.7422C182.145 63.9553 182.059 64.1684 181.932 64.2963C181.804 64.4668 181.591 64.552 181.335 64.5947C181.42 64.5947 181.505 64.6799 181.548 64.7225C181.591 64.7651 181.676 64.8504 181.761 64.9783C181.761 64.9783 181.846 65.1487 181.974 65.3618L182.315 66.0012H181.548L181.292 65.4897C181.122 65.1487 180.994 64.9356 180.866 64.8504C180.738 64.7651 180.61 64.7225 180.44 64.7225H180.269V66.0012H179.63V65.9586ZM180.908 62.08C180.525 62.08 180.141 62.1652 179.758 62.3783C179.374 62.5914 179.118 62.8472 178.905 63.2308C178.692 63.6144 178.607 63.9979 178.607 64.3815C178.607 64.7651 178.692 65.1914 178.905 65.5323C179.118 65.9159 179.374 66.1717 179.758 66.3848C180.141 66.5979 180.525 66.6831 180.908 66.6831C181.292 66.6831 181.718 66.5979 182.059 66.3848C182.443 66.1717 182.699 65.8733 182.912 65.5323C183.125 65.1487 183.21 64.7651 183.21 64.3815C183.21 63.9979 183.083 63.5717 182.912 63.2308C182.699 62.8472 182.4 62.5488 182.059 62.3783C181.676 62.1652 181.292 62.08 180.908 62.08ZM180.908 61.5259C181.42 61.5259 181.889 61.6537 182.358 61.9095C182.827 62.1652 183.168 62.5062 183.424 62.975C183.679 63.4439 183.807 63.9127 183.807 64.4242C183.807 64.9356 183.679 65.4045 183.424 65.8733C183.168 66.3421 182.827 66.6831 182.358 66.9389C181.889 67.1946 181.42 67.3225 180.908 67.3225C180.397 67.3225 179.928 67.1946 179.459 66.9389C178.99 66.6831 178.649 66.3421 178.393 65.8733C178.138 65.4045 178.01 64.9356 178.01 64.4242C178.01 63.9127 178.138 63.4439 178.393 62.975C178.649 62.5062 179.033 62.1652 179.459 61.9095C179.928 61.6537 180.397 61.5259 180.866 61.5259" fill="#F7A400"/>
</g>
</g>
</g>
</g>
<path d="M65.7897 17.5854L72.3183 1.97941H73.9504C74.2784 2.7694 75.2398 5.06484 76.8346 8.86574C78.4444 12.6517 79.6741 15.5583 80.5237 17.5854H78.8245L77.0806 13.3597H69.1658L67.4442 17.5854H65.7897ZM69.6577 12.0853H76.5663L74.2858 6.4287C73.7343 5.0723 73.3468 4.02891 73.1232 3.29854H73.0785C72.5568 4.74438 72.1692 5.78776 71.9158 6.4287L69.6577 12.0853ZM86.751 17.7196C85.5884 17.7196 84.7686 17.414 84.2916 16.8029C83.8296 16.1918 83.5985 15.2826 83.5985 14.0752V7.50189H81.1615V6.29455H83.5985V3.70099L85.0295 3.20911V6.29455H88.0255V7.50189H85.0295V13.8293C85.0295 14.7534 85.1785 15.4391 85.4766 15.8862C85.7896 16.3334 86.289 16.557 86.9746 16.557C87.392 16.557 87.787 16.475 88.1596 16.311L88.2267 17.4737C87.7795 17.6376 87.2876 17.7196 86.751 17.7196ZM90.9175 17.5854V0.682633H92.3708V17.5854H90.9175ZM99.3487 17.742C98.186 17.742 97.2545 17.4438 96.5539 16.8476C95.8533 16.2365 95.5031 15.4316 95.5031 14.4329C95.5031 13.2256 96.0173 12.3164 97.0458 11.7052C98.0892 11.0792 99.5872 10.7662 101.54 10.7662C102.136 10.7662 102.658 10.7885 103.105 10.8333V10.4979C103.105 8.29188 102.106 7.18888 100.109 7.18888C98.9015 7.18888 97.791 7.55406 96.7775 8.28443L96.688 6.92058C97.7314 6.29455 98.9388 5.98153 100.31 5.98153C103.097 5.98153 104.491 7.46463 104.491 10.4308C104.491 10.9823 104.476 11.7201 104.446 12.6443C104.431 13.5684 104.424 14.105 104.424 14.2541C104.424 15.4018 104.469 16.5123 104.558 17.5854H103.217C103.187 17.347 103.172 17.0339 103.172 16.6464C103.172 16.3185 103.187 15.9458 103.217 15.5285H103.172C102.859 16.1992 102.36 16.7358 101.674 17.1383C101.003 17.5407 100.228 17.742 99.3487 17.742ZM99.5946 16.6017C101.95 16.6017 103.127 15.0441 103.127 11.9288C102.799 11.8841 102.352 11.8617 101.786 11.8617C98.6258 11.8617 97.0458 12.7188 97.0458 14.4329C97.0458 15.0888 97.2768 15.6179 97.7389 16.0204C98.2159 16.4079 98.8344 16.6017 99.5946 16.6017ZM110.486 17.8314C109.428 17.8314 108.399 17.6376 107.401 17.2501L107.557 15.8862C108.466 16.3632 109.42 16.6017 110.419 16.6017C111.12 16.6017 111.708 16.4377 112.185 16.1098C112.677 15.767 112.923 15.2676 112.923 14.6118C112.923 14.0603 112.744 13.628 112.386 13.315C112.029 13.002 111.351 12.6368 110.352 12.2195C109.413 11.8319 108.712 11.4146 108.25 10.9674C107.803 10.5203 107.579 9.90913 107.579 9.13404C107.579 8.16518 107.93 7.39755 108.63 6.83114C109.331 6.26474 110.218 5.98153 111.291 5.98153C112.26 5.98153 113.124 6.13059 113.884 6.4287L113.75 7.72547C113.02 7.36774 112.2 7.18888 111.291 7.18888C110.635 7.18888 110.091 7.35284 109.659 7.68076C109.227 8.00868 109.01 8.46329 109.01 9.04461C109.01 9.55139 109.197 9.9613 109.569 10.2743C109.942 10.5724 110.568 10.8854 111.447 11.2134C112.476 11.6009 113.221 12.0481 113.683 12.5548C114.16 13.0616 114.399 13.7026 114.399 14.4777C114.399 15.5658 114.019 16.4005 113.258 16.9818C112.513 17.5482 111.589 17.8314 110.486 17.8314Z" fill="#17418B"/>
<path d="M47.3444 77.6724V62.0663H48.8648V69.221H48.9095C49.8933 68.1329 50.9292 67.0448 52.0173 65.9567L55.8629 62.0663H57.9422L50.4522 69.3998L58.613 77.6724H56.3771L51.436 72.5076C50.2734 71.2406 49.4312 70.3091 48.9095 69.7128H48.8648V77.6724H47.3444ZM64.2203 77.9183C62.849 77.9183 61.8429 77.5084 61.202 76.6886C60.561 75.8539 60.2406 74.572 60.2406 72.843V66.3144H61.7162V72.3735C61.7162 73.8938 61.9174 74.9968 62.3199 75.6825C62.7372 76.3532 63.4751 76.6886 64.5334 76.6886C65.6066 76.6886 66.4711 76.2936 67.1269 75.5036C67.7977 74.7136 68.133 73.5585 68.133 72.0381V66.3144H69.5863V74.2739C69.5863 75.7347 69.6236 76.8675 69.6981 77.6724H68.2895C68.2299 77.0165 68.2001 76.3011 68.2001 75.526H68.1554C67.3207 77.1209 66.009 77.9183 64.2203 77.9183ZM73.6286 77.6724V60.7695H75.0819V77.6724H73.6286ZM80.9642 63.7879V62.0663H82.5516V63.7879H80.9642ZM84.9216 63.7879V62.0663H86.509V63.7879H84.9216ZM82.9541 77.9183C81.5828 77.9183 80.5767 77.5084 79.9357 76.6886C79.2948 75.8539 78.9743 74.572 78.9743 72.843V66.3144H80.45V72.3735C80.45 73.8938 80.6512 74.9968 81.0536 75.6825C81.471 76.3532 82.2088 76.6886 83.2671 76.6886C84.3403 76.6886 85.2048 76.2936 85.8607 75.5036C86.5314 74.7136 86.8668 73.5585 86.8668 72.0381V66.3144H88.3201V74.2739C88.3201 75.7347 88.3573 76.8675 88.4319 77.6724H87.0233C86.9637 77.0165 86.9338 76.3011 86.9338 75.526H86.8891C86.0544 77.1209 84.7427 77.9183 82.9541 77.9183ZM97.6165 77.9183C96.7967 77.9183 96.044 77.6947 95.3584 77.2476C94.6727 76.8004 94.1361 76.2042 93.7486 75.4589H93.7038C93.7038 76.3383 93.674 77.0761 93.6144 77.6724H92.2506C92.3251 76.8675 92.3624 75.7197 92.3624 74.2292V60.7695H93.8156V65.4871C93.8156 66.9628 93.7933 67.9913 93.7486 68.5726H93.7933C94.1659 67.8273 94.71 67.2236 95.4254 66.7616C96.1409 66.2995 96.916 66.0684 97.7507 66.0684C99.2412 66.0684 100.411 66.6199 101.261 67.723C102.125 68.8111 102.558 70.1898 102.558 71.8592C102.558 73.6479 102.118 75.1086 101.239 76.2414C100.374 77.3593 99.1667 77.9183 97.6165 77.9183ZM94.7994 75.3471C95.4851 76.2414 96.3719 76.6886 97.46 76.6886C98.5481 76.6886 99.4126 76.2563 100.054 75.3918C100.695 74.5273 101.015 73.3796 101.015 71.9487C101.015 70.6072 100.702 69.4967 100.076 68.6173C99.4499 67.7379 98.5928 67.2981 97.5047 67.2981C96.4614 67.2981 95.5745 67.7379 94.8441 68.6173C94.1287 69.4967 93.7709 70.6146 93.7709 71.971C93.7709 73.3274 94.1137 74.4528 94.7994 75.3471ZM107.58 63.7879V62.0663H109.168V63.7879H107.58ZM111.538 63.7879V62.0663H113.125V63.7879H111.538ZM109.57 77.9183C108.199 77.9183 107.193 77.5084 106.552 76.6886C105.911 75.8539 105.59 74.572 105.59 72.843V66.3144H107.066V72.3735C107.066 73.8938 107.267 74.9968 107.67 75.6825C108.087 76.3532 108.825 76.6886 109.883 76.6886C110.956 76.6886 111.821 76.2936 112.477 75.5036C113.147 74.7136 113.483 73.5585 113.483 72.0381V66.3144H114.936V74.2739C114.936 75.7347 114.973 76.8675 115.048 77.6724H113.639C113.58 77.0165 113.55 76.3011 113.55 75.526H113.505C112.67 77.1209 111.359 77.9183 109.57 77.9183Z" fill="#17418B"/>
</g>
<defs>
<clipPath id="clip0_231_5">
<rect width="200" height="80" fill="white"/>
</clipPath>
</defs>
</svg>
