<svg width="1184" height="644" viewBox="0 0 1184 644" fill="none" xmlns="http://www.w3.org/2000/svg">
<mask id="mask0_230_2" style="mask-type:luminance" maskUnits="userSpaceOnUse" x="55" y="91" width="1104" height="451">
<path d="M1158.48 91.812H55.5166V541.402H1158.48V91.812Z" fill="white"/>
</mask>
<g mask="url(#mask0_230_2)">
<mask id="mask1_230_2" style="mask-type:luminance" maskUnits="userSpaceOnUse" x="55" y="99" width="1093" height="448">
<path d="M1147.43 99.7041H55.5166V546.4H1147.43V99.7041Z" fill="white"/>
</mask>
<g mask="url(#mask1_230_2)">
<mask id="mask2_230_2" style="mask-type:luminance" maskUnits="userSpaceOnUse" x="55" y="99" width="1093" height="448">
<path d="M1147.43 99.7041H55.5166V546.4H1147.43V99.7041Z" fill="white"/>
</mask>
<g mask="url(#mask2_230_2)">
<mask id="mask3_230_2" style="mask-type:luminance" maskUnits="userSpaceOnUse" x="55" y="99" width="1093" height="448">
<path d="M1147.43 99.7041H55.5166V546.4H1147.43V99.7041Z" fill="white"/>
</mask>
<g mask="url(#mask3_230_2)">
<path d="M379.932 369.353L380.722 383.559C380.722 385.663 379.406 387.505 377.301 388.031C371.25 389.083 363.093 390.399 357.831 390.399C331.783 390.399 323.89 380.402 323.89 348.044V298.323H313.891C311.523 298.323 309.682 296.482 309.682 294.114V279.382C309.682 277.015 311.523 275.173 313.891 275.173H323.89V257.81C323.89 255.706 325.205 254.127 327.047 253.601L344.149 249.392C345.465 249.129 346.78 249.392 347.833 250.181C348.885 250.97 349.411 252.286 349.411 253.601V275.173H375.723C378.091 275.173 379.932 277.015 379.932 279.382V294.114C379.932 296.482 378.091 298.323 375.723 298.323H349.411V344.361C349.411 360.408 349.938 365.933 361.251 365.933C372.565 365.933 371.776 365.67 375.196 365.407C377.564 365.407 379.669 366.985 379.669 369.353M298.894 330.944C298.894 371.984 283.371 390.399 248.377 390.399C213.383 390.399 197.596 371.984 197.596 330.944C197.596 289.905 213.383 272.542 248.377 272.542C283.371 272.542 298.894 291.221 298.894 330.944ZM272.583 330.944C272.583 305.689 265.742 295.956 248.114 295.956C230.485 295.956 223.381 305.163 223.381 330.944C223.381 356.725 227.328 366.985 248.114 366.985C268.899 366.985 272.583 353.832 272.583 330.944ZM683.036 276.752C682.247 275.699 680.931 275.173 679.616 275.173H663.04C661.198 275.173 659.356 276.488 658.83 278.33L636.466 362.776H634.624L612.259 278.33C611.733 276.488 610.155 275.173 608.05 275.173H591.474C590.158 275.173 588.843 275.699 588.053 276.752C587.264 277.804 587.001 279.119 587.264 280.435L611.996 375.14C613.312 379.876 617.522 387.768 626.204 387.768H630.94C630.414 389.346 630.151 390.925 629.625 392.503V393.292C628.046 397.765 625.941 404.341 613.838 404.341L592.526 403.026C591.211 403.026 590.158 403.289 589.369 404.341C588.579 405.131 588.053 406.446 588.053 407.498L588.579 418.547C588.579 420.389 589.895 421.967 591.737 422.493C598.051 424.072 609.891 425.913 619.89 426.176C620.416 426.176 620.679 426.176 621.205 426.176C637.255 426.176 648.306 415.654 653.831 395.397C660.146 371.457 668.302 340.415 674.091 318.054C676.722 307.794 679.09 299.113 680.668 293.062L683.826 280.698C684.089 279.382 683.826 278.067 683.036 277.015M181.81 381.717C182.336 383.033 182.336 384.611 181.547 385.663C180.757 386.979 179.442 387.505 177.863 387.505H157.867C156.288 387.505 154.709 386.453 153.92 384.874L128.398 327.261C115.769 327.261 104.718 326.472 98.6666 325.946V383.033C98.6666 385.4 96.8248 387.242 94.4568 387.242H76.5652C74.1972 387.242 72.3555 385.4 72.3555 383.033V238.606C72.3555 236.502 73.9341 234.66 76.039 234.397C98.9297 231.766 117.347 231.503 124.188 231.503C131.029 231.503 127.872 231.503 127.872 231.503C171.811 231.503 181.02 257.547 181.02 279.119C181.02 300.691 172.338 310.425 154.446 319.369L181.81 381.191V381.717ZM127.609 256.758H118.137C107.612 256.758 101.561 257.547 98.6666 258.073V302.533C103.666 302.796 113.401 303.322 126.293 303.322C143.132 303.322 153.394 294.114 153.394 280.171C153.394 266.229 146.553 256.758 127.346 256.758M484.914 310.425V385.137C484.914 386.452 484.387 387.505 483.335 388.294C482.283 389.083 481.23 389.609 479.915 389.346C471.232 388.031 467.022 385.4 462.812 382.243C462.812 382.243 443.342 390.136 425.977 390.136C408.611 390.136 393.351 376.982 393.351 354.095C393.351 331.207 404.402 321.737 430.976 319.895L458.866 317.528V310.688C458.866 302.006 453.867 297.271 444.921 297.271C435.975 297.271 415.189 298.587 405.717 299.639C404.665 299.639 403.349 299.639 402.56 298.587C401.771 297.797 401.244 296.745 401.244 295.43L400.718 281.224C400.718 279.119 402.297 277.278 404.402 276.752C412.821 275.436 433.607 272.279 446.499 272.279C472.811 272.279 484.914 284.381 484.914 310.425ZM434.396 338.837C424.398 339.889 419.399 344.361 419.399 353.305C419.399 362.25 420.978 368.037 430.976 368.037C440.974 368.037 459.129 363.565 459.129 363.565V337.521L434.396 338.837ZM568.583 274.121C557.269 274.91 545.955 281.224 539.115 286.222V279.119C539.115 276.752 537.273 274.91 534.905 274.91H517.803C515.435 274.91 513.593 276.752 513.593 279.119V383.296C513.593 385.663 515.435 387.505 517.803 387.505H534.905C537.273 387.505 539.115 385.663 539.115 383.296V311.477C543.061 308.32 554.901 299.113 569.372 298.06C571.477 298.06 573.319 295.956 573.319 293.851V278.593C573.319 277.278 572.793 276.225 572.003 275.436C571.214 274.647 569.899 274.121 568.846 274.384" fill="#17418B"/>
<path d="M844.587 424.335L831.431 440.119L827.222 436.436L840.903 421.178C838.799 419.073 836.957 417.232 834.852 415.39L838.009 412.234C843.271 417.232 847.744 420.915 853.533 425.65L850.902 429.07C848.797 427.492 846.692 425.913 844.587 424.072M818.276 385.4L796.701 398.028C797.49 399.606 798.279 401.185 799.332 402.763L820.907 390.135C819.855 388.294 819.328 387.242 818.276 385.4ZM831.958 405.394L820.381 415.39L826.432 398.291C825.38 396.712 824.854 395.66 823.801 394.345L803.015 408.551C804.068 409.866 805.12 411.181 806.173 412.76L818.802 404.078L813.014 421.441C814.066 422.493 815.119 424.335 816.434 425.387L835.641 408.814C834.589 407.761 833.273 406.709 832.221 405.394M860.374 436.173C863.794 438.015 866.951 439.856 870.898 441.698L873.003 438.015C867.741 435.384 863.005 432.227 858.795 429.333L844.587 450.116C849.849 453.799 854.848 456.693 860.374 459.85L862.742 456.167L851.428 449.327L855.375 443.802L863.005 448.274L865.11 444.854C862.742 443.539 860.111 441.961 857.479 440.382L860.637 435.91L860.374 436.173ZM930.361 358.83C910.891 358.83 894.841 342.783 894.841 323.315C894.841 303.848 910.891 287.801 930.361 287.801C949.831 287.801 965.881 303.848 965.881 323.315C965.881 342.783 950.095 358.83 930.361 358.83ZM930.624 346.992C943.517 346.992 954.304 336.206 954.304 323.315C954.304 310.425 946.674 303.059 936.413 300.428C936.413 299.376 935.887 294.377 935.887 294.377H924.047C924.047 294.377 923.783 299.639 923.783 300.691C913.785 303.585 907.207 312.792 907.207 323.052C907.207 333.312 917.995 346.729 930.624 346.729M878.528 188.885V187.833C878.528 181.519 883.264 175.995 889.842 175.469C896.683 174.68 902.735 179.941 903.261 186.781V187.833C903.261 194.147 898.525 199.671 891.684 200.461C885.106 200.987 878.791 195.988 878.265 189.149M883.001 188.359C883.264 192.832 887.211 195.988 891.421 195.725C895.631 195.199 898.788 192.042 898.788 187.833C898.788 187.833 898.788 187.307 898.788 187.044C898.525 182.572 894.578 179.415 890.105 179.941C885.895 180.204 882.738 183.624 883.001 187.833V188.622V188.359ZM934.834 194.673C932.729 194.673 931.677 194.673 929.835 194.673L936.15 181.783L941.675 170.207L947.2 170.734L950.095 181.783L954.041 196.778C952.199 196.515 950.621 196.251 949.042 195.988L947.727 191.253C944.043 190.727 940.623 190.464 937.202 190.464L934.834 194.673ZM939.044 185.992C941.675 185.992 944.306 186.518 946.937 186.781L945.622 181.519L944.043 176.258L941.412 181.519L939.044 185.992ZM914.048 174.943L916.153 195.199L921.415 194.673L919.311 174.417L927.467 173.89V169.418C918.258 169.944 914.311 170.207 905.366 171.523L905.892 175.732L913.785 174.68L914.048 174.943ZM915.101 450.642L913.259 465.9L905.892 449.327C904.05 449.064 902.998 448.537 901.419 448.274L895.631 472.74C897.472 473.266 899.051 473.529 900.893 473.792L904.05 458.797L911.417 475.634C912.996 475.634 915.101 476.423 916.943 476.423L919.574 451.168C918.258 451.168 916.416 451.168 914.838 451.168M1059.29 397.765L1041.13 387.768L1038.76 391.977L1060.6 404.078L1069.02 388.82L1065.34 386.716L1059.29 397.501V397.765ZM1031.92 401.448L1056.65 409.603C1056.13 410.392 1055.6 410.918 1055.08 411.707C1054.55 412.234 1054.02 412.76 1053.76 413.549L1049.29 411.97L1042.45 420.389L1044.81 424.335C1043.76 425.387 1042.71 426.702 1041.39 428.018L1031.66 411.707L1027.98 405.657L1031.66 401.448H1031.92ZM1034.55 407.235L1037.45 411.97L1040.08 416.706L1043.76 411.97L1044.81 410.918L1034.55 407.498V407.235ZM1008.51 440.382C1009.56 442.224 1010.08 444.328 1010.08 446.696C1010.08 448.537 1009.82 450.116 1009.03 451.694C1007.98 454.062 1006.14 456.167 1003.77 457.482C997.981 460.902 990.351 458.797 986.93 452.747C986.93 452.484 986.667 451.957 986.404 451.694C985.615 450.116 985.351 448.274 985.088 446.696C985.088 442.224 987.456 438.278 991.403 435.91C997.454 432.49 1005.08 434.595 1008.51 440.382ZM1005.61 446.696C1005.61 445.118 1005.35 443.802 1004.56 442.487C1002.45 438.541 997.455 437.488 993.771 439.593C991.14 441.171 989.561 443.802 989.561 446.696C989.561 448.011 990.087 449.327 990.614 450.642C990.614 450.905 991.14 451.431 991.403 451.957C993.771 454.851 997.981 455.377 1001.4 453.536C1002.19 453.01 1002.98 452.484 1003.51 451.957C1004.82 450.379 1005.35 448.537 1005.35 446.696M1017.71 416.969L1027.98 428.018L1010.61 423.019C1009.03 424.072 1008.24 424.598 1006.93 425.65L1021.92 445.907C1023.24 444.854 1024.55 443.802 1025.87 442.75L1016.66 430.649L1034.29 435.91C1035.61 434.858 1037.18 433.805 1038.5 432.227L1021.13 413.812C1020.08 414.864 1019.03 416.18 1017.98 417.232M1129.01 323.315C1129.01 325.683 1129.01 328.051 1128.75 329.892V330.418L1128.22 330.681C1119.8 335.68 1108.75 338.573 1097.96 338.836C1097.7 340.152 1096.38 350.149 1096.38 351.464C1106.65 354.358 1116.38 359.882 1123.48 366.985V367.511C1123.75 367.511 1123.75 368.037 1123.75 368.037C1123.22 371.984 1121.91 377.245 1120.33 380.402V380.928H1119.54C1110.07 383.559 1098.75 383.559 1088.23 380.928C1087.7 382.243 1083.75 391.451 1083.49 392.766C1092.7 398.554 1100.59 406.446 1105.33 414.864V415.39V415.917C1104.01 419.336 1101.12 424.072 1098.75 426.966V427.492H1097.96C1088.23 427.492 1077.18 424.598 1067.71 419.336C1066.92 420.389 1060.6 428.807 1059.55 430.122C1066.92 437.751 1072.7 447.748 1075.07 457.219V457.745V458.008C1072.97 460.902 1069.02 464.848 1065.86 467.216H1065.6C1065.6 467.479 1064.81 467.216 1064.81 467.216C1055.34 464.585 1045.6 459.06 1037.71 451.694C1036.66 452.484 1028.76 458.797 1027.45 459.586C1032.45 468.794 1035.61 479.317 1035.61 489.051V490.366H1035.08C1032.19 492.997 1027.45 495.89 1024.03 497.206H1023.77H1023.24C1014.82 492.207 1006.66 484.315 1001.14 475.108C999.823 475.634 990.351 479.843 989.035 480.369C990.351 485.368 991.14 490.892 991.14 496.153C991.14 501.415 990.087 506.939 989.035 511.675V512.201L988.509 512.464C985.351 513.779 979.826 515.095 976.143 515.884H975.616L975.353 515.621C967.986 508.781 962.461 498.784 959.567 488.524C958.251 488.524 948.253 489.84 946.937 490.366C946.937 501.152 943.78 512.201 938.781 520.619V521.145C938.518 521.145 937.991 521.145 937.991 521.145C934.571 521.671 929.046 521.671 925.362 521.145H924.836L924.573 520.619C919.574 512.201 916.679 501.152 916.416 490.366C914.838 490.366 904.576 488.787 902.998 488.524C900.103 498.784 894.578 508.518 887.474 515.621H887.211C887.211 515.884 886.685 515.884 886.685 515.884C882.738 515.358 877.739 513.779 874.319 512.464H873.792V511.938C872.214 507.202 871.687 501.678 871.687 496.417C871.687 491.155 872.477 485.894 873.792 480.895C872.477 480.369 863.531 476.686 862.215 476.16C856.69 485.631 848.534 493.523 840.114 498.521H839.588H839.062C835.641 496.943 830.905 494.312 827.748 491.944H827.485V490.629C827.485 480.895 830.379 470.109 835.641 460.902C834.589 460.113 826.169 453.536 824.854 452.747C817.223 460.113 807.225 465.9 797.753 468.268H797.227H796.701C793.807 465.9 790.123 462.217 787.755 459.06V458.534C787.492 458.534 787.755 458.008 787.755 458.008C790.386 448.537 795.911 438.541 803.279 430.912C802.489 429.859 795.911 421.441 795.122 420.126C785.65 425.387 774.599 428.544 764.864 428.281H764.075C761.707 424.861 759.076 420.126 757.497 416.706V416.18V415.653C762.496 406.972 770.39 399.08 779.599 393.555C779.072 392.24 775.126 382.769 774.336 381.717C763.812 384.348 752.498 384.348 743.026 381.717H742.5L742.237 381.191C740.921 378.034 739.606 372.51 739.079 368.827V368.301V367.774C745.92 360.671 755.655 355.147 766.18 351.99C766.18 350.412 764.601 339.889 764.338 338.573C753.551 338.573 742.5 335.68 734.08 330.681H733.554C733.554 330.418 733.554 329.892 733.554 329.892C733.554 328.051 733.291 325.946 733.291 323.578C733.291 321.211 733.291 319.106 733.554 317.265V316.738H734.08C742.5 311.74 753.551 308.846 764.338 308.583C764.338 307.268 765.917 297.008 765.917 295.43C755.655 292.536 745.657 286.748 738.816 279.908H738.553C738.553 279.645 738.553 279.119 738.553 279.119C739.079 275.173 740.395 269.912 741.974 266.755V266.229H742.763C752.235 263.335 763.549 263.598 774.073 266.229C774.599 264.913 778.546 255.706 779.072 254.39C769.863 248.866 761.707 240.974 756.971 232.292V231.766V231.24C758.55 227.82 761.181 223.085 763.286 220.191V219.665H764.338C774.336 219.665 785.124 222.559 794.596 227.82C795.385 226.768 801.963 218.086 802.752 217.034C795.385 209.142 789.597 199.408 787.229 189.938V189.412V188.885C789.597 185.992 793.543 182.046 796.438 179.678H796.964C796.964 179.415 797.49 179.678 797.49 179.678C807.225 182.046 816.96 187.833 824.591 195.462C825.643 194.673 833.273 188.622 834.589 187.833C829.327 178.626 826.432 167.84 826.432 158.369V157.054H826.959C829.853 154.423 834.589 151.792 838.009 150.214H838.272H838.799C847.218 154.949 855.375 163.104 860.9 172.312C862.215 171.786 872.214 167.577 873.529 167.051C872.214 161.789 871.424 156.528 871.424 151.266C871.424 145.742 872.214 140.48 873.529 135.745V135.219H874.055C877.213 133.903 882.475 132.325 886.422 131.799H886.948L887.474 132.062C894.578 138.902 900.103 148.899 903.261 159.158C904.839 159.158 915.101 157.58 916.416 157.317C916.416 146.531 919.574 135.745 924.573 127.064V126.537H925.362C929.046 126.011 934.571 126.011 938.255 126.537H938.781L939.044 127.064C944.306 135.482 947.2 146.531 947.2 157.054C948.779 157.317 959.04 158.632 960.356 158.895C963.513 148.372 969.039 138.639 976.143 131.799H976.406C976.406 131.536 976.932 131.799 976.932 131.799C980.879 132.325 986.141 133.64 989.561 135.219H990.087V136.008C991.666 140.743 992.192 146.005 992.192 151.266C992.192 156.528 991.403 162.052 990.087 167.051C991.403 167.577 1001.4 171.786 1002.72 172.312C1008.24 163.104 1016.14 155.212 1024.82 150.214H1025.34H1025.87C1029.29 151.529 1034.03 154.423 1036.92 156.791H1037.45V158.369C1037.45 168.103 1034.29 178.889 1029.29 187.833C1030.34 188.622 1038.5 195.199 1039.82 195.988C1047.45 188.622 1057.44 182.835 1066.92 180.467H1067.44H1067.97C1070.86 182.572 1074.81 186.781 1076.91 189.675L1077.44 190.201V190.727C1074.81 200.461 1069.02 210.194 1061.65 217.823C1062.44 218.876 1068.76 227.031 1069.55 228.346C1079.28 223.085 1090.07 220.191 1099.8 220.454H1100.33V220.98C1102.96 224.137 1105.86 228.872 1107.17 232.029V232.555C1107.43 232.555 1107.17 233.082 1107.17 233.082C1102.17 241.5 1094.28 249.392 1085.07 255.18C1085.6 256.495 1089.28 265.702 1090.07 267.018C1100.33 264.387 1111.91 264.387 1121.12 267.018H1121.64V267.544C1122.96 270.701 1124.54 276.225 1125.06 280.171V280.698L1124.8 280.961C1117.96 288.064 1107.96 293.851 1097.7 296.745C1097.7 298.06 1099.28 308.32 1099.54 309.635C1110.33 309.635 1121.38 312.792 1129.8 317.791H1130.33C1130.33 318.054 1130.33 318.58 1130.33 318.58C1130.33 320.421 1130.59 322.526 1130.59 325.157M830.642 207.564L846.955 225.716C849.323 228.083 851.691 227.82 855.111 225.189C875.634 209.142 902.208 199.408 930.361 199.408C958.514 199.408 985.088 208.879 1005.87 225.189C1009.03 227.557 1011.66 228.083 1014.03 225.716L1030.34 207.564C1032.19 205.459 1032.19 202.828 1028.76 199.934C1001.4 178.626 967.723 165.472 930.624 165.472C893.526 165.472 859.584 178.626 832.747 199.934C829.327 202.828 829.327 205.459 831.168 207.564M831.695 283.854C829.853 282.802 828.011 281.487 826.432 282.013C825.117 282.276 824.327 283.854 823.538 285.959C815.908 312.266 815.908 334.364 823.538 360.408C824.064 361.987 824.591 363.828 826.169 364.091C827.485 364.617 829.327 364.091 831.695 362.513L882.212 328.051C884.054 326.735 885.106 324.894 885.106 323.315C885.106 321.737 884.054 319.632 882.212 318.317L831.695 283.854ZM842.745 253.864C842.745 255.706 845.113 256.758 846.955 257.547L901.945 284.381C904.05 285.433 906.155 285.433 907.734 284.381C909.312 283.328 910.365 281.487 910.365 279.382L914.838 218.35C914.838 215.456 914.838 213.614 913.522 212.825C912.47 211.773 910.628 212.036 909.049 212.299C882.738 218.613 863.531 229.662 844.587 249.655C843.008 251.497 842.219 252.812 842.745 254.127M843.535 393.292C843.535 394.345 844.324 395.66 845.639 396.975C864.583 416.969 883.791 428.018 910.102 434.068C911.68 434.595 913.522 434.858 914.575 434.068C915.89 433.279 916.153 431.438 915.89 428.544L911.417 367.511C911.417 365.144 910.365 363.302 908.786 362.513C907.207 361.461 905.103 361.461 902.998 362.513L848.007 389.346C846.166 390.135 844.061 391.188 843.798 393.029C843.798 393.029 843.798 393.292 843.798 393.555M930.361 362.513C952.199 362.513 969.828 344.887 969.828 323.052C969.828 301.217 952.199 283.591 930.361 283.591C908.523 283.591 890.895 301.217 890.895 323.052C890.895 344.887 908.523 362.513 930.361 362.513ZM946.937 433.279C947.99 434.068 949.305 434.332 951.673 433.542C977.984 427.229 997.191 416.18 1016.14 396.449C1017.19 395.134 1018.5 393.819 1018.24 392.24C1017.98 390.925 1016.66 389.609 1014.03 388.294L959.04 361.461C956.935 360.408 954.831 360.408 953.252 361.461C951.673 362.513 950.621 364.091 950.621 366.722L946.148 427.755C946.148 429.859 945.885 431.964 947.2 433.279M1029.03 362.25C1030.61 363.302 1032.45 364.617 1034.29 364.091C1035.34 363.828 1036.4 362.513 1037.18 360.145C1044.81 334.101 1044.81 311.74 1037.18 285.959C1036.66 284.381 1035.87 282.539 1034.55 282.013C1033.24 281.487 1031.4 282.013 1029.03 283.854L978.511 318.317C976.669 319.632 975.616 321.474 975.616 323.315C975.616 325.157 976.669 326.998 978.511 328.314L1029.03 362.776V362.25ZM1017.98 252.812C1017.98 251.76 1017.45 250.444 1015.87 249.129C997.191 229.399 977.721 218.086 951.41 211.773C949.831 211.51 948.253 210.984 946.937 212.036C945.622 213.088 945.359 214.93 945.622 217.56L950.095 278.593C950.095 280.961 951.147 282.802 952.726 283.591C954.304 284.644 956.409 284.381 958.514 283.591L1013.5 257.021C1015.35 256.232 1017.19 255.18 1017.71 253.338C1017.71 253.338 1017.71 253.075 1017.71 252.812M782.756 361.987L806.173 355.147C808.278 354.621 810.119 352.253 810.119 349.359C801.7 305.689 812.487 270.438 838.009 242.026C840.64 240.184 840.903 236.501 838.272 233.871L821.17 216.771C819.591 214.93 816.434 214.93 813.803 217.56C781.177 252.023 764.601 304.637 776.704 358.567C777.494 361.198 779.335 363.039 782.493 362.25M1074.28 374.614L1050.87 366.722C1049.55 366.196 1046.39 366.196 1044.81 370.405C1025.87 415.917 981.668 446.959 930.361 446.959C879.055 446.959 834.063 415.127 815.908 369.616C814.592 366.196 811.172 366.196 810.119 366.722L786.703 374.614C784.071 375.403 782.756 377.771 784.071 380.928C806.962 439.593 864.057 480.895 930.361 480.895C996.665 480.895 1054.02 439.33 1077.18 380.665C1078.49 377.508 1077.18 375.403 1074.28 374.614ZM1046.92 217.034C1044.55 214.14 1040.87 214.667 1039.82 216.508L1022.71 233.608C1020.35 236.238 1020.35 239.921 1022.98 241.763C1048.5 270.175 1059.29 305.426 1050.87 349.096C1050.87 351.99 1052.44 354.358 1054.81 354.884L1078.23 361.724C1081.39 362.513 1083.49 360.671 1084.02 358.041C1096.12 304.111 1079.55 251.234 1046.92 216.771M992.192 210.72L997.718 200.198L1012.19 193.358C1010.61 192.305 1009.03 191.516 1007.45 190.464L997.455 194.936L995.613 184.15C993.508 183.098 992.192 182.835 990.087 181.783L992.982 197.567L987.456 207.827L992.192 210.457V210.72ZM965.092 446.959C957.725 448.537 952.199 449.853 945.095 450.905L945.885 455.114C948.516 454.588 950.884 454.325 953.778 454.062L957.462 474.318L962.724 473.266L958.251 453.01C960.882 452.22 963.513 451.694 966.407 450.905L965.092 446.696V446.959ZM893.526 450.379V451.694C893.263 455.114 890.895 458.534 887.211 458.797L888 470.372C886.422 470.109 884.317 469.32 882.475 468.531V457.482L877.476 455.377L873.529 465.111C871.951 464.585 870.372 464.059 868.793 463.269L873.792 451.431L874.319 449.853L878.528 440.119L889.842 444.328C892.21 445.117 893.526 447.485 893.789 449.59M888.79 450.379C888.79 449.59 888.263 449.064 887.474 448.801L881.159 446.433L879.844 450.379L879.318 451.957L885.106 454.062C886.685 454.851 888.263 453.273 888.79 451.957C888.79 451.431 889.053 450.905 888.79 450.379ZM964.829 199.145C962.724 198.619 961.408 198.356 959.04 197.567L962.987 183.624L965.881 173.627C970.091 174.68 974.301 175.995 978.247 177.31C980.615 178.1 981.668 180.73 981.931 183.361C981.931 187.044 980.089 191.253 976.406 192.042L977.984 203.091C976.143 202.302 974.827 201.776 972.985 200.987L971.67 191.253L966.934 189.675L964.566 198.356L964.829 199.145ZM968.249 185.992L973.775 187.833C975.353 188.359 977.458 185.992 977.458 183.887C977.458 181.783 977.195 182.046 975.879 181.783C973.775 180.993 972.459 180.73 970.091 179.941L969.039 183.887L968.512 186.255L968.249 185.992ZM941.149 462.217L946.674 475.371C944.832 475.371 943.254 475.371 941.675 475.897L940.096 471.688H929.309C929.309 471.951 927.993 476.423 927.993 476.423C926.151 476.423 924.573 476.423 922.994 476.423L927.73 462.48L931.151 451.957C931.151 451.694 936.676 451.431 936.676 451.431V452.22C936.939 452.22 941.412 462.743 941.412 462.743L941.149 462.217ZM937.728 466.952L935.887 462.217L934.045 456.956L932.466 462.217L930.887 467.216H938.255L937.728 466.952ZM970.88 444.854L979.037 468.531C980.615 468.005 982.457 467.479 984.036 466.689L975.879 443.276C973.775 444.065 972.722 444.328 970.617 444.854M850.902 195.462L849.586 193.095C853.27 190.727 857.216 188.885 860.9 186.781C865.373 184.413 871.687 190.201 871.161 195.725C871.161 196.778 870.898 197.567 870.372 198.356L879.581 204.933C877.739 205.722 876.687 206.511 874.582 207.301L866.688 201.513L862.215 203.881L866.951 211.51C865.11 212.562 864.057 213.351 861.952 214.667L851.428 195.725L850.902 195.462ZM856.164 194.41L856.953 195.462L859.584 199.934L864.847 197.304C865.373 197.304 865.636 196.515 865.636 195.725C865.636 193.358 864.057 190.201 861.426 191.516C859.584 192.568 858.269 193.358 856.164 194.41Z" fill="#F7A400"/>
<path d="M1087.17 482.737H1088.75C1090.86 482.737 1092.44 482.737 1092.96 482.737C1093.49 482.737 1094.02 482.211 1094.28 481.948C1094.54 481.422 1094.81 480.895 1094.81 480.632C1094.81 480.369 1094.81 479.58 1094.28 479.317C1094.02 478.791 1093.49 478.528 1092.96 478.265C1092.44 478.265 1091.12 478.265 1088.75 478.265H1087.17V483.526V482.737ZM1083.49 493.523V474.582H1087.44C1091.12 474.582 1092.96 474.582 1093.49 474.582C1094.81 474.582 1095.86 474.845 1096.38 475.371C1097.17 475.634 1097.7 476.423 1098.23 477.212C1098.75 478.002 1099.01 479.054 1099.01 479.843C1099.01 481.158 1098.49 482.474 1097.7 483.263C1096.91 484.315 1095.59 484.841 1094.02 485.104C1094.54 485.104 1095.07 485.631 1095.33 485.894C1095.59 486.157 1096.12 486.683 1096.65 487.472C1096.65 487.472 1097.17 488.524 1097.96 489.84L1100.07 493.786H1095.33L1093.75 490.629C1092.7 488.524 1091.91 487.209 1091.12 486.683C1090.33 486.157 1089.54 485.894 1088.49 485.894H1087.44V493.786H1083.49V493.523ZM1091.38 469.583C1089.02 469.583 1086.65 470.109 1084.28 471.425C1081.91 472.74 1080.33 474.319 1079.02 476.686C1077.7 479.054 1077.18 481.421 1077.18 483.789C1077.18 486.157 1077.7 488.788 1079.02 490.892C1080.33 493.26 1081.91 494.838 1084.28 496.154C1086.65 497.469 1089.02 497.995 1091.38 497.995C1093.75 497.995 1096.38 497.469 1098.49 496.154C1100.86 494.838 1102.44 492.997 1103.75 490.892C1105.07 488.524 1105.59 486.157 1105.59 483.789C1105.59 481.421 1104.8 478.791 1103.75 476.686C1102.44 474.319 1100.59 472.477 1098.49 471.425C1096.12 470.109 1093.75 469.583 1091.38 469.583ZM1091.38 466.163C1094.54 466.163 1097.44 466.953 1100.33 468.531C1103.22 470.109 1105.33 472.214 1106.91 475.108C1108.49 478.002 1109.28 480.895 1109.28 484.052C1109.28 487.209 1108.49 490.103 1106.91 492.997C1105.33 495.89 1103.22 497.995 1100.33 499.573C1097.44 501.152 1094.54 501.941 1091.38 501.941C1088.23 501.941 1085.33 501.152 1082.44 499.573C1079.54 497.995 1077.44 495.89 1075.86 492.997C1074.28 490.103 1073.49 487.209 1073.49 484.052C1073.49 480.895 1074.28 478.002 1075.86 475.108C1077.44 472.214 1079.81 470.109 1082.44 468.531C1085.33 466.953 1088.23 466.163 1091.12 466.163" fill="#F7A400"/>
</g>
</g>
</g>
</g>
<path d="M380.851 197.131L421.147 100.807H431.221C433.245 105.683 439.179 119.851 449.023 143.311C458.959 166.679 466.549 184.619 471.793 197.131H461.305L450.541 171.049H401.689L391.063 197.131H380.851ZM404.725 163.183H447.367L433.291 128.269C429.887 119.897 427.495 113.457 426.115 108.949H425.839C422.619 117.873 420.227 124.313 418.663 128.269L404.725 163.183ZM510.229 197.959C503.053 197.959 497.993 196.073 495.049 192.301C492.197 188.529 490.771 182.917 490.771 175.465V134.893H475.729V127.441H490.771V111.433L499.603 108.397V127.441H518.095V134.893H499.603V173.947C499.603 179.651 500.523 183.883 502.363 186.643C504.295 189.403 507.377 190.783 511.609 190.783C514.185 190.783 516.623 190.277 518.923 189.265L519.337 196.441C516.577 197.453 513.541 197.959 510.229 197.959ZM535.945 197.131V92.8033H544.915V197.131H535.945ZM587.984 198.097C580.808 198.097 575.058 196.257 570.734 192.577C566.41 188.805 564.248 183.837 564.248 177.673C564.248 170.221 567.422 164.609 573.77 160.837C580.21 156.973 589.456 155.041 601.508 155.041C605.188 155.041 608.408 155.179 611.168 155.455V153.385C611.168 139.769 605.004 132.961 592.676 132.961C585.224 132.961 578.37 135.215 572.114 139.723L571.562 131.305C578.002 127.441 585.454 125.509 593.918 125.509C611.122 125.509 619.724 134.663 619.724 152.971C619.724 156.375 619.632 160.929 619.448 166.633C619.356 172.337 619.31 175.649 619.31 176.569C619.31 183.653 619.586 190.507 620.138 197.131H611.858C611.674 195.659 611.582 193.727 611.582 191.335C611.582 189.311 611.674 187.011 611.858 184.435H611.582C609.65 188.575 606.568 191.887 602.336 194.371C598.196 196.855 593.412 198.097 587.984 198.097ZM589.502 191.059C604.038 191.059 611.306 181.445 611.306 162.217C609.282 161.941 606.522 161.803 603.026 161.803C583.522 161.803 573.77 167.093 573.77 177.673C573.77 181.721 575.196 184.987 578.048 187.471C580.992 189.863 584.81 191.059 589.502 191.059ZM656.727 198.649C650.195 198.649 643.847 197.453 637.683 195.061L638.649 186.643C644.261 189.587 650.149 191.059 656.313 191.059C660.637 191.059 664.271 190.047 667.215 188.023C670.251 185.907 671.769 182.825 671.769 178.777C671.769 175.373 670.665 172.705 668.457 170.773C666.249 168.841 662.063 166.587 655.899 164.011C650.103 161.619 645.779 159.043 642.927 156.283C640.167 153.523 638.787 149.751 638.787 144.967C638.787 138.987 640.949 134.249 645.273 130.753C649.597 127.257 655.071 125.509 661.695 125.509C667.675 125.509 673.011 126.429 677.703 128.269L676.875 136.273C672.367 134.065 667.307 132.961 661.695 132.961C657.647 132.961 654.289 133.973 651.621 135.997C648.953 138.021 647.619 140.827 647.619 144.415C647.619 147.543 648.769 150.073 651.069 152.005C653.369 153.845 657.233 155.777 662.661 157.801C669.009 160.193 673.609 162.953 676.461 166.081C679.405 169.209 680.877 173.165 680.877 177.949C680.877 184.665 678.531 189.817 673.839 193.405C669.239 196.901 663.535 198.649 656.727 198.649Z" fill="#17418B"/>
<path d="M266.998 568V471.676H276.382V515.836H276.658C282.73 509.12 289.124 502.404 295.84 495.688L319.576 471.676H332.41L286.18 516.94L336.55 568H322.75L292.252 536.122C285.076 528.302 279.878 522.552 276.658 518.872H276.382V568H266.998ZM371.16 569.518C362.696 569.518 356.486 566.988 352.53 561.928C348.574 556.776 346.596 548.864 346.596 538.192V497.896H355.704V535.294C355.704 544.678 356.946 551.486 359.43 555.718C362.006 559.858 366.56 561.928 373.092 561.928C379.716 561.928 385.052 559.49 389.1 554.614C393.24 549.738 395.31 542.608 395.31 533.224V497.896H404.28V547.024C404.28 556.04 404.51 563.032 404.97 568H396.276C395.908 563.952 395.724 559.536 395.724 554.752H395.448C390.296 564.596 382.2 569.518 371.16 569.518ZM429.23 568V463.672H438.2V568H429.23ZM474.507 482.302V471.676H484.305V482.302H474.507ZM498.933 482.302V471.676H508.731V482.302H498.933ZM486.789 569.518C478.325 569.518 472.115 566.988 468.159 561.928C464.203 556.776 462.225 548.864 462.225 538.192V497.896H471.333V535.294C471.333 544.678 472.575 551.486 475.059 555.718C477.635 559.858 482.189 561.928 488.721 561.928C495.345 561.928 500.681 559.49 504.729 554.614C508.869 549.738 510.939 542.608 510.939 533.224V497.896H519.909V547.024C519.909 556.04 520.139 563.032 520.599 568H511.905C511.537 563.952 511.353 559.536 511.353 554.752H511.077C505.925 564.596 497.829 569.518 486.789 569.518ZM577.288 569.518C572.228 569.518 567.582 568.138 563.35 565.378C559.118 562.618 555.806 558.938 553.414 554.338H553.138C553.138 559.766 552.954 564.32 552.586 568H544.168C544.628 563.032 544.858 555.948 544.858 546.748V463.672H553.828V492.79C553.828 501.898 553.69 508.246 553.414 511.834H553.69C555.99 507.234 559.348 503.508 563.764 500.656C568.18 497.804 572.964 496.378 578.116 496.378C587.316 496.378 594.538 499.782 599.782 506.59C605.118 513.306 607.786 521.816 607.786 532.12C607.786 543.16 605.072 552.176 599.644 559.168C594.308 566.068 586.856 569.518 577.288 569.518ZM559.9 553.648C564.132 559.168 569.606 561.928 576.322 561.928C583.038 561.928 588.374 559.26 592.33 553.924C596.286 548.588 598.264 541.504 598.264 532.672C598.264 524.392 596.332 517.538 592.468 512.11C588.604 506.682 583.314 503.968 576.598 503.968C570.158 503.968 564.684 506.682 560.176 512.11C555.76 517.538 553.552 524.438 553.552 532.81C553.552 541.182 555.668 548.128 559.9 553.648ZM638.786 482.302V471.676H648.584V482.302H638.786ZM663.212 482.302V471.676H673.01V482.302H663.212ZM651.068 569.518C642.604 569.518 636.394 566.988 632.438 561.928C628.482 556.776 626.504 548.864 626.504 538.192V497.896H635.612V535.294C635.612 544.678 636.854 551.486 639.338 555.718C641.914 559.858 646.468 561.928 653 561.928C659.624 561.928 664.96 559.49 669.008 554.614C673.148 549.738 675.218 542.608 675.218 533.224V497.896H684.188V547.024C684.188 556.04 684.418 563.032 684.878 568H676.184C675.816 563.952 675.632 559.536 675.632 554.752H675.356C670.204 564.596 662.108 569.518 651.068 569.518Z" fill="#17418B"/>
</svg>
